<svg id="Logo" xmlns="http://www.w3.org/2000/svg" width="147" height="47" viewBox="0 0 147 47">
  <metadata><?xpacket begin="﻿" id="W5M0MpCehiHzreSzNTczkc9d"?>
<x:xmpmeta xmlns:x="adobe:ns:meta/" x:xmptk="Adobe XMP Core 5.6-c142 79.160924, 2017/07/13-01:06:39        ">
   <rdf:RDF xmlns:rdf="http://www.w3.org/1999/02/22-rdf-syntax-ns#">
      <rdf:Description rdf:about=""/>
   </rdf:RDF>
</x:xmpmeta>
                                                                                                    
                                                                                                    
                                                                                                    
                                                                                                    
                                                                                                    
                                                                                                    
                                                                                                    
                                                                                                    
                                                                                                    
                                                                                                    
                                                                                                    
                                                                                                    
                                                                                                    
                                                                                                    
                                                                                                    
                                                                                                    
                                                                                                    
                                                                                                    
                                                                                                    
                                                                                                    
                           
<?xpacket end="w"?></metadata>
<defs>
    <style>
      .cls-1 {
        fill: none;
        stroke: #00aeef;
        stroke-width: 1px;
      }

      .cls-1, .cls-4, .cls-5 {
        fill-rule: evenodd;
      }

      .cls-2 {
        fill: #1e1666;
      }

      .cls-3 {
        fill: #1bb7f1;
      }

      .cls-4 {
        fill: #1e1566;
      }

      .cls-5, .cls-6 {
        fill: #fff;
      }
    </style>
  </defs>
  <path class="cls-1" d="M35.145,19.768C45.03,31.762,48.278,43.5,42.4,45.974S23.74,40.738,13.855,28.744,0.721,5.016,6.6,2.537,25.259,7.773,35.145,19.768Z"/>
  <ellipse class="cls-2" cx="33.672" cy="16.672" rx="16.797" ry="16.672"/>
  <circle id="Ellipse_13_" data-name="Ellipse 13 " class="cls-3" cx="35.188" cy="13.641" r="13.75"/>
  <circle class="cls-2" cx="4.641" cy="13.641" r="4.578"/>
  <ellipse id="Ellipse_14_" data-name="Ellipse 14 " class="cls-2" cx="45.891" cy="42.453" rx="4.578" ry="4.547"/>
  <path id="AI_Lab" data-name="AI Lab" class="cls-4" d="M81.16,25.152L74.512,10.92a1.549,1.549,0,0,0-.66-0.732,1.909,1.909,0,0,0-1.9,0,1.547,1.547,0,0,0-.66.732L64.672,25.152a1.479,1.479,0,0,0-.144.624,1.18,1.18,0,0,0,.456.936,1.527,1.527,0,0,0,1.008.384,1.41,1.41,0,0,0,.744-0.2,1.362,1.362,0,0,0,.528-0.636L68.7,23.04h8.448l1.44,3.216a1.329,1.329,0,0,0,1.248.84,1.514,1.514,0,0,0,1.02-.384,1.193,1.193,0,0,0,.444-0.936,1.479,1.479,0,0,0-.144-0.624h0Zm-8.232-11.64L76.1,20.64H69.76Zm14.64,13.632a1.517,1.517,0,0,0,1.14-.432,1.55,1.55,0,0,0,.42-1.128V11.5a1.51,1.51,0,0,0-.42-1.116,1.541,1.541,0,0,0-1.14-.42A1.445,1.445,0,0,0,86.032,11.5V25.584a1.549,1.549,0,0,0,.42,1.128,1.485,1.485,0,0,0,1.116.432h0ZM105.543,27h8.376a1.282,1.282,0,1,0,0-2.544h-6.744V11.5a1.509,1.509,0,0,0-.42-1.116,1.541,1.541,0,0,0-1.14-.42,1.445,1.445,0,0,0-1.536,1.536V25.56a1.427,1.427,0,0,0,.384,1.056,1.46,1.46,0,0,0,1.08.384h0Zm19.08-12.024a10.346,10.346,0,0,0-2.292.264,7.838,7.838,0,0,0-2,.72,1.939,1.939,0,0,0-.684.564,1.229,1.229,0,0,0-.2.708,1.186,1.186,0,0,0,.276.816,0.9,0.9,0,0,0,.708.312,2.4,2.4,0,0,0,.912-0.312q0.984-.384,1.7-0.588a5.186,5.186,0,0,1,1.416-.2,2.145,2.145,0,0,1,1.632.54,2.458,2.458,0,0,1,.5,1.716v0.552h-0.6a19.568,19.568,0,0,0-4.1.336,3.969,3.969,0,0,0-2.148,1.08,2.966,2.966,0,0,0-.66,2.04,3.335,3.335,0,0,0,.552,1.872,3.8,3.8,0,0,0,1.512,1.32,4.71,4.71,0,0,0,2.136.48,3.854,3.854,0,0,0,2.028-.528,3.13,3.13,0,0,0,1.284-1.464v0.528a1.34,1.34,0,0,0,.4,1.008,1.4,1.4,0,0,0,1.02.384,1.453,1.453,0,0,0,1.056-.372,1.354,1.354,0,0,0,.384-1.02V19.872a5.074,5.074,0,0,0-1.188-3.684,4.889,4.889,0,0,0-3.636-1.212h0Zm-0.744,10.056a1.9,1.9,0,0,1-1.332-.492,1.628,1.628,0,0,1-.54-1.26,1.284,1.284,0,0,1,.384-0.984,2.423,2.423,0,0,1,1.272-.5,16.556,16.556,0,0,1,2.5-.144h0.432v0.5a2.908,2.908,0,0,1-.756,2.076,2.563,2.563,0,0,1-1.956.8h0Zm17.76-10.056a4.735,4.735,0,0,0-2.232.516,3.59,3.59,0,0,0-1.512,1.476V11.3a1.245,1.245,0,0,0-.408-0.984,1.573,1.573,0,0,0-1.08-.36,1.556,1.556,0,0,0-1.092.384,1.3,1.3,0,0,0-.42,1.008V25.7a1.371,1.371,0,0,0,.4,1.032,1.468,1.468,0,0,0,1.068.384,1.511,1.511,0,0,0,1.08-.384,1.349,1.349,0,0,0,.408-1.032V25.1a3.756,3.756,0,0,0,1.524,1.536,4.6,4.6,0,0,0,2.268.552,4.862,4.862,0,0,0,2.7-.768,5.092,5.092,0,0,0,1.848-2.172,7.506,7.506,0,0,0,.66-3.228,7.269,7.269,0,0,0-.66-3.192,4.845,4.845,0,0,0-4.548-2.856h0Zm-0.792,9.888a2.668,2.668,0,0,1-2.22-.984,4.427,4.427,0,0,1-.78-2.808,4.376,4.376,0,0,1,.78-2.8,3.034,3.034,0,0,1,4.44-.012,4.281,4.281,0,0,1,.78,2.76,4.484,4.484,0,0,1-.792,2.832,2.65,2.65,0,0,1-2.208,1.008h0Z"/>
  <g id="Group_1_copy_2" data-name="Group 1 copy 2">
    <path class="cls-5" d="M38,6a5.391,5.391,0,0,1,4,3c1.25,2.688,2.037,1.249,2,0-0.062-2.094-2.094-5.219-5-5C35.992,4.226,36.625,5.688,38,6Z"/>
    <circle class="cls-6" cx="47.5" cy="41.5" r="2.5"/>
    <circle class="cls-6" cx="6.5" cy="11.5" r="1.5"/>
    <path class="cls-5" d="M44.765,12.011c0.55-.052,1.1,1.02,1.231,2.395s-0.211,2.531-.76,2.583-1.1-1.02-1.231-2.395S44.215,12.063,44.765,12.011Z"/>
  </g>
</svg>
